<mxfile host="Electron" modified="2023-04-18T19:01:19.555Z" agent="Mozilla/5.0 (Windows NT 10.0; Win64; x64) AppleWebKit/537.36 (KHTML, like Gecko) draw.io/21.1.2 Chrome/106.0.5249.199 Electron/21.4.3 Safari/537.36" etag="tLXQBGCt3m6ckILVdJ5x" version="21.1.2" type="device">
  <diagram id="C5RBs43oDa-KdzZeNtuy" name="Page-1">
    <mxGraphModel dx="794" dy="788" grid="1" gridSize="10" guides="1" tooltips="1" connect="1" arrows="1" fold="1" page="1" pageScale="1" pageWidth="827" pageHeight="1169" math="0" shadow="0">
      <root>
        <mxCell id="WIyWlLk6GJQsqaUBKTNV-0" />
        <mxCell id="WIyWlLk6GJQsqaUBKTNV-1" parent="WIyWlLk6GJQsqaUBKTNV-0" />
        <mxCell id="5ylXC0vqH7yExzFe4pIZ-2" style="edgeStyle=orthogonalEdgeStyle;rounded=0;orthogonalLoop=1;jettySize=auto;html=1;exitX=0.5;exitY=1;exitDx=0;exitDy=0;entryX=0.5;entryY=0;entryDx=0;entryDy=0;" edge="1" parent="WIyWlLk6GJQsqaUBKTNV-1" source="5ylXC0vqH7yExzFe4pIZ-0" target="5ylXC0vqH7yExzFe4pIZ-1">
          <mxGeometry relative="1" as="geometry" />
        </mxCell>
        <mxCell id="5ylXC0vqH7yExzFe4pIZ-0" value="Начало" style="ellipse;whiteSpace=wrap;html=1;" vertex="1" parent="WIyWlLk6GJQsqaUBKTNV-1">
          <mxGeometry x="240" y="40" width="160" height="40" as="geometry" />
        </mxCell>
        <mxCell id="5ylXC0vqH7yExzFe4pIZ-6" value="" style="edgeStyle=orthogonalEdgeStyle;rounded=0;orthogonalLoop=1;jettySize=auto;html=1;" edge="1" parent="WIyWlLk6GJQsqaUBKTNV-1" source="5ylXC0vqH7yExzFe4pIZ-1" target="5ylXC0vqH7yExzFe4pIZ-5">
          <mxGeometry relative="1" as="geometry" />
        </mxCell>
        <mxCell id="5ylXC0vqH7yExzFe4pIZ-1" value="Ввод массива &lt;br&gt;строк inputArray" style="shape=parallelogram;perimeter=parallelogramPerimeter;whiteSpace=wrap;html=1;fixedSize=1;" vertex="1" parent="WIyWlLk6GJQsqaUBKTNV-1">
          <mxGeometry x="240" y="100" width="160" height="60" as="geometry" />
        </mxCell>
        <mxCell id="5ylXC0vqH7yExzFe4pIZ-8" value="" style="edgeStyle=orthogonalEdgeStyle;rounded=0;orthogonalLoop=1;jettySize=auto;html=1;" edge="1" parent="WIyWlLk6GJQsqaUBKTNV-1" source="5ylXC0vqH7yExzFe4pIZ-5" target="5ylXC0vqH7yExzFe4pIZ-7">
          <mxGeometry relative="1" as="geometry" />
        </mxCell>
        <mxCell id="5ylXC0vqH7yExzFe4pIZ-5" value="Создание пустого массива outputArray" style="rounded=0;whiteSpace=wrap;html=1;" vertex="1" parent="WIyWlLk6GJQsqaUBKTNV-1">
          <mxGeometry x="240" y="190" width="160" height="60" as="geometry" />
        </mxCell>
        <mxCell id="5ylXC0vqH7yExzFe4pIZ-10" value="" style="edgeStyle=orthogonalEdgeStyle;rounded=0;orthogonalLoop=1;jettySize=auto;html=1;" edge="1" parent="WIyWlLk6GJQsqaUBKTNV-1" source="5ylXC0vqH7yExzFe4pIZ-7" target="5ylXC0vqH7yExzFe4pIZ-9">
          <mxGeometry relative="1" as="geometry" />
        </mxCell>
        <mxCell id="5ylXC0vqH7yExzFe4pIZ-7" value="outputArraySize = 0" style="rounded=0;whiteSpace=wrap;html=1;" vertex="1" parent="WIyWlLk6GJQsqaUBKTNV-1">
          <mxGeometry x="240" y="280" width="160" height="60" as="geometry" />
        </mxCell>
        <mxCell id="5ylXC0vqH7yExzFe4pIZ-12" value="" style="edgeStyle=orthogonalEdgeStyle;rounded=0;orthogonalLoop=1;jettySize=auto;html=1;" edge="1" parent="WIyWlLk6GJQsqaUBKTNV-1" source="5ylXC0vqH7yExzFe4pIZ-9" target="5ylXC0vqH7yExzFe4pIZ-11">
          <mxGeometry relative="1" as="geometry" />
        </mxCell>
        <mxCell id="5ylXC0vqH7yExzFe4pIZ-22" value="" style="edgeStyle=orthogonalEdgeStyle;rounded=0;orthogonalLoop=1;jettySize=auto;html=1;" edge="1" parent="WIyWlLk6GJQsqaUBKTNV-1" source="5ylXC0vqH7yExzFe4pIZ-9" target="5ylXC0vqH7yExzFe4pIZ-21">
          <mxGeometry relative="1" as="geometry" />
        </mxCell>
        <mxCell id="5ylXC0vqH7yExzFe4pIZ-9" value="i=0; &lt;br&gt;i&amp;lt;inputArray.Length;&lt;br&gt;i++" style="shape=hexagon;perimeter=hexagonPerimeter2;whiteSpace=wrap;html=1;fixedSize=1;" vertex="1" parent="WIyWlLk6GJQsqaUBKTNV-1">
          <mxGeometry x="240" y="370" width="160" height="80" as="geometry" />
        </mxCell>
        <mxCell id="5ylXC0vqH7yExzFe4pIZ-15" value="" style="edgeStyle=orthogonalEdgeStyle;rounded=0;orthogonalLoop=1;jettySize=auto;html=1;" edge="1" parent="WIyWlLk6GJQsqaUBKTNV-1" source="5ylXC0vqH7yExzFe4pIZ-11" target="5ylXC0vqH7yExzFe4pIZ-14">
          <mxGeometry relative="1" as="geometry" />
        </mxCell>
        <mxCell id="5ylXC0vqH7yExzFe4pIZ-33" style="edgeStyle=orthogonalEdgeStyle;rounded=0;orthogonalLoop=1;jettySize=auto;html=1;" edge="1" parent="WIyWlLk6GJQsqaUBKTNV-1" source="5ylXC0vqH7yExzFe4pIZ-11">
          <mxGeometry relative="1" as="geometry">
            <mxPoint x="200" y="410" as="targetPoint" />
          </mxGeometry>
        </mxCell>
        <mxCell id="5ylXC0vqH7yExzFe4pIZ-11" value="inputArray[i].Length&lt;br&gt;&amp;lt;=3" style="rhombus;whiteSpace=wrap;html=1;" vertex="1" parent="WIyWlLk6GJQsqaUBKTNV-1">
          <mxGeometry x="240" y="470" width="160" height="80" as="geometry" />
        </mxCell>
        <mxCell id="5ylXC0vqH7yExzFe4pIZ-13" value="Yes" style="text;html=1;strokeColor=none;fillColor=none;align=center;verticalAlign=middle;whiteSpace=wrap;rounded=0;" vertex="1" parent="WIyWlLk6GJQsqaUBKTNV-1">
          <mxGeometry x="330" y="550" width="60" height="30" as="geometry" />
        </mxCell>
        <mxCell id="5ylXC0vqH7yExzFe4pIZ-17" value="" style="edgeStyle=orthogonalEdgeStyle;rounded=0;orthogonalLoop=1;jettySize=auto;html=1;" edge="1" parent="WIyWlLk6GJQsqaUBKTNV-1" source="5ylXC0vqH7yExzFe4pIZ-14" target="5ylXC0vqH7yExzFe4pIZ-16">
          <mxGeometry relative="1" as="geometry" />
        </mxCell>
        <mxCell id="5ylXC0vqH7yExzFe4pIZ-14" value="outputArray[outputArraySize]&lt;br&gt;=&lt;br&gt;inputArray[i]" style="rounded=0;whiteSpace=wrap;html=1;" vertex="1" parent="WIyWlLk6GJQsqaUBKTNV-1">
          <mxGeometry x="240" y="580" width="160" height="60" as="geometry" />
        </mxCell>
        <mxCell id="5ylXC0vqH7yExzFe4pIZ-18" style="edgeStyle=orthogonalEdgeStyle;rounded=0;orthogonalLoop=1;jettySize=auto;html=1;entryX=0;entryY=0.5;entryDx=0;entryDy=0;" edge="1" parent="WIyWlLk6GJQsqaUBKTNV-1" source="5ylXC0vqH7yExzFe4pIZ-16" target="5ylXC0vqH7yExzFe4pIZ-9">
          <mxGeometry relative="1" as="geometry">
            <Array as="points">
              <mxPoint x="320" y="760" />
              <mxPoint x="160" y="760" />
              <mxPoint x="160" y="410" />
            </Array>
          </mxGeometry>
        </mxCell>
        <mxCell id="5ylXC0vqH7yExzFe4pIZ-16" value="outputArraySize++" style="rounded=0;whiteSpace=wrap;html=1;" vertex="1" parent="WIyWlLk6GJQsqaUBKTNV-1">
          <mxGeometry x="240" y="670" width="160" height="60" as="geometry" />
        </mxCell>
        <mxCell id="5ylXC0vqH7yExzFe4pIZ-20" value="No" style="text;html=1;strokeColor=none;fillColor=none;align=center;verticalAlign=middle;whiteSpace=wrap;rounded=0;" vertex="1" parent="WIyWlLk6GJQsqaUBKTNV-1">
          <mxGeometry x="180" y="510" width="60" height="30" as="geometry" />
        </mxCell>
        <mxCell id="5ylXC0vqH7yExzFe4pIZ-25" value="" style="edgeStyle=orthogonalEdgeStyle;rounded=0;orthogonalLoop=1;jettySize=auto;html=1;" edge="1" parent="WIyWlLk6GJQsqaUBKTNV-1" source="5ylXC0vqH7yExzFe4pIZ-21" target="5ylXC0vqH7yExzFe4pIZ-24">
          <mxGeometry relative="1" as="geometry" />
        </mxCell>
        <mxCell id="5ylXC0vqH7yExzFe4pIZ-27" style="edgeStyle=orthogonalEdgeStyle;rounded=0;orthogonalLoop=1;jettySize=auto;html=1;entryX=0.5;entryY=0;entryDx=0;entryDy=0;" edge="1" parent="WIyWlLk6GJQsqaUBKTNV-1" source="5ylXC0vqH7yExzFe4pIZ-21" target="5ylXC0vqH7yExzFe4pIZ-26">
          <mxGeometry relative="1" as="geometry" />
        </mxCell>
        <mxCell id="5ylXC0vqH7yExzFe4pIZ-21" value="outputArraySize &amp;gt; 0" style="rhombus;whiteSpace=wrap;html=1;" vertex="1" parent="WIyWlLk6GJQsqaUBKTNV-1">
          <mxGeometry x="470" y="370" width="160" height="80" as="geometry" />
        </mxCell>
        <mxCell id="5ylXC0vqH7yExzFe4pIZ-23" value="Yes" style="text;html=1;strokeColor=none;fillColor=none;align=center;verticalAlign=middle;whiteSpace=wrap;rounded=0;" vertex="1" parent="WIyWlLk6GJQsqaUBKTNV-1">
          <mxGeometry x="550" y="440" width="60" height="30" as="geometry" />
        </mxCell>
        <mxCell id="5ylXC0vqH7yExzFe4pIZ-30" value="" style="edgeStyle=orthogonalEdgeStyle;rounded=0;orthogonalLoop=1;jettySize=auto;html=1;" edge="1" parent="WIyWlLk6GJQsqaUBKTNV-1" source="5ylXC0vqH7yExzFe4pIZ-24" target="5ylXC0vqH7yExzFe4pIZ-29">
          <mxGeometry relative="1" as="geometry" />
        </mxCell>
        <mxCell id="5ylXC0vqH7yExzFe4pIZ-24" value="Вывод outputArray" style="shape=document;whiteSpace=wrap;html=1;boundedLbl=1;" vertex="1" parent="WIyWlLk6GJQsqaUBKTNV-1">
          <mxGeometry x="470" y="470" width="160" height="80" as="geometry" />
        </mxCell>
        <mxCell id="5ylXC0vqH7yExzFe4pIZ-31" style="edgeStyle=orthogonalEdgeStyle;rounded=0;orthogonalLoop=1;jettySize=auto;html=1;entryX=0.5;entryY=0;entryDx=0;entryDy=0;" edge="1" parent="WIyWlLk6GJQsqaUBKTNV-1" source="5ylXC0vqH7yExzFe4pIZ-26" target="5ylXC0vqH7yExzFe4pIZ-29">
          <mxGeometry relative="1" as="geometry">
            <mxPoint x="550" y="620" as="targetPoint" />
            <Array as="points">
              <mxPoint x="740" y="610" />
              <mxPoint x="550" y="610" />
            </Array>
          </mxGeometry>
        </mxCell>
        <mxCell id="5ylXC0vqH7yExzFe4pIZ-26" value="Вывод &quot;Все строки длиннее 3-х символов&quot;" style="shape=document;whiteSpace=wrap;html=1;boundedLbl=1;" vertex="1" parent="WIyWlLk6GJQsqaUBKTNV-1">
          <mxGeometry x="660" y="470" width="160" height="80" as="geometry" />
        </mxCell>
        <mxCell id="5ylXC0vqH7yExzFe4pIZ-28" value="No" style="text;html=1;strokeColor=none;fillColor=none;align=center;verticalAlign=middle;whiteSpace=wrap;rounded=0;" vertex="1" parent="WIyWlLk6GJQsqaUBKTNV-1">
          <mxGeometry x="630" y="380" width="60" height="30" as="geometry" />
        </mxCell>
        <mxCell id="5ylXC0vqH7yExzFe4pIZ-29" value="Конец" style="ellipse;whiteSpace=wrap;html=1;" vertex="1" parent="WIyWlLk6GJQsqaUBKTNV-1">
          <mxGeometry x="470" y="670" width="160" height="40" as="geometry" />
        </mxCell>
      </root>
    </mxGraphModel>
  </diagram>
</mxfile>
